<mxfile host="app.diagrams.net" agent="Mozilla/5.0 (Windows NT 6.3; Win64; x64) AppleWebKit/537.36 (KHTML, like Gecko) Chrome/96.0.4664.110 Safari/537.36" version="24.7.17">
  <diagram id="C5RBs43oDa-KdzZeNtuy" name="Page-1">
    <mxGraphModel dx="538" dy="534" grid="1" gridSize="10" guides="1" tooltips="1" connect="1" arrows="1" fold="1" page="1" pageScale="1" pageWidth="827" pageHeight="1169" background="#000000" math="0" shadow="1">
      <root>
        <mxCell id="WIyWlLk6GJQsqaUBKTNV-0" />
        <mxCell id="WIyWlLk6GJQsqaUBKTNV-1" parent="WIyWlLk6GJQsqaUBKTNV-0" />
        <mxCell id="6VBaOf3o9NcyqXHQ1wU7-5" style="edgeStyle=none;curved=1;rounded=0;orthogonalLoop=1;jettySize=auto;html=1;exitX=0.5;exitY=1;exitDx=0;exitDy=0;entryX=0.5;entryY=0;entryDx=0;entryDy=0;fontSize=12;startSize=8;endSize=8;labelBackgroundColor=none;strokeColor=#DDA15E;fontColor=default;" edge="1" parent="WIyWlLk6GJQsqaUBKTNV-1" source="6VBaOf3o9NcyqXHQ1wU7-0" target="6VBaOf3o9NcyqXHQ1wU7-4">
          <mxGeometry relative="1" as="geometry" />
        </mxCell>
        <mxCell id="6VBaOf3o9NcyqXHQ1wU7-0" value="SET_LED_STATE&lt;div&gt;(0,0,1)&lt;/div&gt;" style="shape=process;whiteSpace=wrap;html=1;backgroundOutline=1;labelBackgroundColor=none;fillColor=#BC6C25;strokeColor=#DDA15E;fontColor=#FEFAE0;" vertex="1" parent="WIyWlLk6GJQsqaUBKTNV-1">
          <mxGeometry x="330" y="80" width="140" height="60" as="geometry" />
        </mxCell>
        <mxCell id="6VBaOf3o9NcyqXHQ1wU7-3" value="" style="edgeStyle=none;curved=1;rounded=0;orthogonalLoop=1;jettySize=auto;html=1;fontSize=12;startSize=8;endSize=8;labelBackgroundColor=none;strokeColor=#DDA15E;fontColor=default;" edge="1" parent="WIyWlLk6GJQsqaUBKTNV-1" source="6VBaOf3o9NcyqXHQ1wU7-2" target="6VBaOf3o9NcyqXHQ1wU7-0">
          <mxGeometry relative="1" as="geometry" />
        </mxCell>
        <mxCell id="6VBaOf3o9NcyqXHQ1wU7-2" value="INICIO" style="rounded=1;whiteSpace=wrap;html=1;labelBackgroundColor=none;fillColor=#BC6C25;strokeColor=#DDA15E;fontColor=#FEFAE0;" vertex="1" parent="WIyWlLk6GJQsqaUBKTNV-1">
          <mxGeometry x="360" y="20" width="80" height="30" as="geometry" />
        </mxCell>
        <mxCell id="6VBaOf3o9NcyqXHQ1wU7-10" style="edgeStyle=none;curved=1;rounded=0;orthogonalLoop=1;jettySize=auto;html=1;exitX=0.5;exitY=1;exitDx=0;exitDy=0;entryX=0.5;entryY=0;entryDx=0;entryDy=0;strokeColor=#DDA15E;fontSize=12;fontColor=#FEFAE0;startSize=8;endSize=8;fillColor=#BC6C25;" edge="1" parent="WIyWlLk6GJQsqaUBKTNV-1" source="6VBaOf3o9NcyqXHQ1wU7-4" target="6VBaOf3o9NcyqXHQ1wU7-9">
          <mxGeometry relative="1" as="geometry" />
        </mxCell>
        <mxCell id="6VBaOf3o9NcyqXHQ1wU7-4" value="SET_LED_STATE&lt;div&gt;(0,5,1)&lt;/div&gt;" style="shape=process;whiteSpace=wrap;html=1;backgroundOutline=1;labelBackgroundColor=none;fillColor=#BC6C25;strokeColor=#DDA15E;fontColor=#FEFAE0;" vertex="1" parent="WIyWlLk6GJQsqaUBKTNV-1">
          <mxGeometry x="330" y="170" width="140" height="60" as="geometry" />
        </mxCell>
        <mxCell id="6VBaOf3o9NcyqXHQ1wU7-12" style="edgeStyle=none;curved=1;rounded=0;orthogonalLoop=1;jettySize=auto;html=1;exitX=0.5;exitY=1;exitDx=0;exitDy=0;entryX=0.5;entryY=0;entryDx=0;entryDy=0;strokeColor=#DDA15E;fontSize=12;fontColor=#FEFAE0;startSize=8;endSize=8;fillColor=#BC6C25;" edge="1" parent="WIyWlLk6GJQsqaUBKTNV-1" source="6VBaOf3o9NcyqXHQ1wU7-9" target="6VBaOf3o9NcyqXHQ1wU7-11">
          <mxGeometry relative="1" as="geometry" />
        </mxCell>
        <mxCell id="6VBaOf3o9NcyqXHQ1wU7-9" value="SET_LED_STATE&lt;div&gt;(1,0,1)&lt;/div&gt;" style="shape=process;whiteSpace=wrap;html=1;backgroundOutline=1;labelBackgroundColor=none;fillColor=#BC6C25;strokeColor=#DDA15E;fontColor=#FEFAE0;" vertex="1" parent="WIyWlLk6GJQsqaUBKTNV-1">
          <mxGeometry x="330" y="260" width="140" height="60" as="geometry" />
        </mxCell>
        <mxCell id="6VBaOf3o9NcyqXHQ1wU7-11" value="SET_LED_STATE&lt;div&gt;(1,5,1)&lt;/div&gt;" style="shape=process;whiteSpace=wrap;html=1;backgroundOutline=1;labelBackgroundColor=none;fillColor=#BC6C25;strokeColor=#DDA15E;fontColor=#FEFAE0;" vertex="1" parent="WIyWlLk6GJQsqaUBKTNV-1">
          <mxGeometry x="330" y="350" width="140" height="60" as="geometry" />
        </mxCell>
      </root>
    </mxGraphModel>
  </diagram>
</mxfile>
